<svg xmlns="http://www.w3.org/2000/svg" data-name="Layer 1" width="551" height="383" style=""><rect id="backgroundrect" width="100%" height="100%" x="0" y="0" fill="none" stroke="none" data-darkreader-inline-fill="" data-darkreader-inline-stroke="" style="--darkreader-inline-fill:none; --darkreader-inline-stroke:none;"/><title>online_calendar</title><g class="currentLayer" style=""><title>Layer 1</title><rect x="0" y="40.36629867553711" width="551" height="343.1135559082031" fill="#e6e6e6" id="svg_15" data-darkreader-inline-fill="" style="--darkreader-inline-fill:#1f2123;" class=""/><rect x="36.948944091796875" y="106.46611785888672" width="100.9157485961914" height="65.5952377319336" fill="#fff" id="svg_16" data-darkreader-inline-fill="" style="--darkreader-inline-fill:#181a1b;" class=""/><rect x="162.34439086914062" y="106.46611785888672" width="100.9157485961914" height="65.5952377319336" fill="#fff" id="svg_17" data-darkreader-inline-fill="" style="--darkreader-inline-fill:#181a1b;" class=""/><rect x="287.7398681640625" y="106.46611785888672" width="100.9157485961914" height="65.5952377319336" fill="#fff" id="svg_18" data-darkreader-inline-fill="" style="--darkreader-inline-fill:#181a1b;" class=""/><rect x="413.13531494140625" y="106.46611785888672" width="100.9157485961914" height="65.5952377319336" fill="#fff" id="svg_19" data-darkreader-inline-fill="" style="--darkreader-inline-fill:#181a1b;" class=""/><rect x="36.948944091796875" y="199.30860900878906" width="100.9157485961914" height="65.5952377319336" fill="#fff" id="svg_20" data-darkreader-inline-fill="" style="--darkreader-inline-fill:#181a1b;" class=""/><rect x="162.34439086914062" y="199.30860900878906" width="100.9157485961914" height="65.5952377319336" fill="#fff" id="svg_21" data-darkreader-inline-fill="" style="--darkreader-inline-fill:#181a1b;" class=""/><rect x="287.7398681640625" y="199.30860900878906" width="100.9157485961914" height="65.5952377319336" fill="#fff" id="svg_22" data-darkreader-inline-fill="" style="--darkreader-inline-fill:#181a1b;" class=""/><rect x="413.13531494140625" y="199.30860900878906" width="100.9157485961914" height="65.5952377319336" fill="#fff" id="svg_23" data-darkreader-inline-fill="" style="--darkreader-inline-fill:#181a1b;" class=""/><rect x="36.948944091796875" y="292.1510925292969" width="100.9157485961914" height="65.5952377319336" fill="#fff" id="svg_24" data-darkreader-inline-fill="" style="--darkreader-inline-fill:#181a1b;" class=""/><rect x="162.34439086914062" y="292.1510925292969" width="100.9157485961914" height="65.5952377319336" fill="#fff" id="svg_25" data-darkreader-inline-fill="" style="--darkreader-inline-fill:#181a1b;" class=""/><rect x="287.7398681640625" y="292.1510925292969" width="100.9157485961914" height="65.5952377319336" fill="#fff" id="svg_26" data-darkreader-inline-fill="" style="--darkreader-inline-fill:#181a1b;" class=""/><rect x="413.13531494140625" y="292.1510925292969" width="100.9157485961914" height="65.5952377319336" fill="#fff" id="svg_27" data-darkreader-inline-fill="" style="--darkreader-inline-fill:#181a1b;" class=""/><circle cx="144.30950927734375" cy="65.5952377319336" r="15.137359619140625" fill="#fff" id="svg_28" data-darkreader-inline-fill="" style="--darkreader-inline-fill:#181a1b;" class=""/><circle cx="394.58056640625" cy="65.5952377319336" r="15.137359619140625" fill="#fff" id="svg_29" data-darkreader-inline-fill="" style="--darkreader-inline-fill:#181a1b;" class=""/><rect x="138.25457763671875" width="12.10988998413086" height="69.63186645507812" fill="#e6e6e6" id="svg_30" data-darkreader-inline-fill="" style="--darkreader-inline-fill:#1f2123;" class="" y="0"/><rect x="388.525634765625" width="12.10988998413086" height="69.63186645507812" fill="#e6e6e6" id="svg_31" data-darkreader-inline-fill="" style="--darkreader-inline-fill:#1f2123;" class="" y="0"/><path d="M486.41391999999996,139.26373919921878 a22.75657,22.75657 0 1 1 -3.52684,-12.19042 A22.81841,22.81841 0 0 1 486.41391999999996,139.26373919921878 z" fill="#6c63ff" id="svg_32" data-darkreader-inline-fill="" style="--darkreader-inline-fill:#080091;" class=""/><path d="M482.88707999999997,127.07331919921876 l-22.46389,22.45974 c-1.41187,-2.1858 -9.277660000000001,-12.34393 -9.277660000000001,-12.34393 a31.82988,31.82988 0 0 1 3.2198,-2.84223 l6.52257,8.69677 l19.36856,-19.36856 A22.72614,22.72614 0 0 1 482.88707999999997,127.07331919921876 z" fill="#fff" id="svg_33" data-darkreader-inline-fill="" style="--darkreader-inline-fill:#181a1b;" class=""/><path d="M235.62300000000005,232.10622919921877 a22.75657,22.75657 0 1 1 -3.52684,-12.19042 A22.81841,22.81841 0 0 1 235.62300000000005,232.10622919921877 z" fill="#6c63ff" id="svg_34" data-darkreader-inline-fill="" style="--darkreader-inline-fill:#080091;" class=""/><path d="M232.09614999999997,219.91580919921876 l-22.46389,22.45974 c-1.41187,-2.1858 -9.277660000000001,-12.34393 -9.277660000000001,-12.34393 a31.82988,31.82988 0 0 1 3.2198,-2.84223 l6.52257,8.69678 l19.36856,-19.36857 A22.72665,22.72665 0 0 1 232.09614999999997,219.91580919921876 z" fill="#fff" id="svg_35" data-darkreader-inline-fill="" style="--darkreader-inline-fill:#181a1b;" class=""/><path d="M110.22752000000003,232.10622919921877 a22.75667,22.75667 0 1 1 -3.52684,-12.19042 A22.81841,22.81841 0 0 1 110.22752000000003,232.10622919921877 z" fill="#6c63ff" id="svg_36" data-darkreader-inline-fill="" style="--darkreader-inline-fill:#080091;" class=""/><path d="M106.70068000000003,219.91580919921876 l-22.46389,22.45974 c-1.41187,-2.1858 -9.27765,-12.34393 -9.27765,-12.34393 a31.82988,31.82988 0 0 1 3.2198,-2.84223 l6.52256,8.69678 l19.36857,-19.36857 A22.72658,22.72658 0 0 1 106.70068000000003,219.91580919921876 z" fill="#fff" id="svg_37" data-darkreader-inline-fill="" style="--darkreader-inline-fill:#181a1b;" class=""/></g></svg>