<svg xmlns="http://www.w3.org/2000/svg" data-name="Layer 1" width="810" height="636" style=""><rect id="backgroundrect" width="100%" height="100%" x="0" y="0" fill="none" stroke="none"/><title>around the world</title><g class="currentLayer" style=""><title>Layer 1</title><path d="M808.0981836816406,437.93411642456056 c-5.07857,43.50989 -15.63075,78.44306 -30.1148,106.30283 c-19.27353,37.12073 -52.24082,52.0769 -81.69069,67.727 a186.25463,186.25463 0 0 1 -26.46244,11.50627 C616.2403236816406,642.0691164245605 556.2612736816407,637.1351164245606 509.1473336816406,627.3152564245605 a633.41922,633.41922 0 0 0 -100.30882,-12.682 q-14.42616,-0.6504200000000002 -28.88127,-0.6456500000000004 c-14.85989,0.019300000000000008 -282.42383,5.0978200000000005 -347.5682,-126.79054 c-16.08371,-32.53363 -27.10814,-72.27552 -31.06883,-120.71941 C-9.887316318359353,229.52038642456057 51.710693681640635,139.57111642456056 131.16559368164064,80.77738642456055 C281.4697936816407,-30.440153575439453 487.4935536816406,-25.77601357543945 635.5812736816406,88.37111642456054 C734.2229336816406,164.40501642456056 826.5813836816405,279.47725642456055 808.0981836816406,437.93411642456056 z" fill="#3f3d56" id="svg_1" class=""/><path d="M615.1338736816406,314.69678642456057 c-41.6969,-31.172 -107.00463,-60.6524 -179.17724,-80.88119 c-65.71334,-18.41881 -129.808,-27.31147 -180.49087,-25.04056 l-0.2638800000000001,-5.89406 c51.28671,-2.29684 116.04622,6.67043 182.34724,25.25373 c72.84556,20.41749 138.86081,50.24589 181.11773,81.83674 z" fill="#f2f2f2" id="svg_2" class=""/><path d="M610.8052736816406,338.70717642456054 A196.3374,196.3374 0 0 1 593.8137336816407,418.8681164245605 q-1.40714,3.16823 -2.93223,6.27742 A197.06862,197.06862 0 0 1 413.75105368164066,535.7613464245605 c-108.8282,0 -197.05417,-88.226 -197.05417,-197.05417 q0,-6.84088 0.4660700000000001,-13.57551 q0.2212400000000001,-3.42485 0.5723,-6.80838 c10.20079,-99.25279 94.07273,-176.67029 196.0158,-176.67029 C522.5792736816406,141.65299642456054 610.8052736816406,229.87897642456056 610.8052736816406,338.70717642456054 z" fill="#6c63ff" id="svg_3" class=""/><path d="M593.8137336816407,418.8681164245605 q-1.40714,3.16823 -2.93223,6.27742 q-8.63736,0.9380700000000002 -18.18327,1.36286 c-5.26854,0.23600000000000004 -10.69048,0.3540000000000001 -16.23039,0.3540000000000001 c-48.39038,0 -106.62757,-8.93235 -166.12139,-25.60526 c-66.30224,-18.58445 -126.28576,-44.57908 -168.90613,-73.1991 q-2.177,-1.46023 -4.27737,-2.92633 q0.2212400000000001,-3.42485 0.5723,-6.80838 q3.38946,2.416 6.99128,4.83782 c42.11886,28.27786 101.50062,53.99522 167.21288,72.41449 c58.97463,16.53129 116.66314,25.38693 164.4989,25.38693 q8.20372,0 15.99446,-0.3481000000000002 Q583.7781436816406,420.10117642456055 593.8137336816407,418.8681164245605 z" opacity="0.1" id="svg_4" class=""/><path d="M556.4686336816407,422.1436064245606 c-48.38894,0.0011600000000000004 -106.62955,-8.93212 -166.1207,-25.60662 C324.0463336816406,377.95368642456054 264.06027368164064,351.95811642456056 221.43949368164067,323.33881642456055 c-43.51034,-29.21652 -63.91314,-58.00525 -57.45041,-81.063 c6.46244,-23.05771 38.85588,-37.04848 91.2128,-39.39487 l0.2638800000000001,5.89406 c-24.45,1.09556 -44.37573,4.72966 -59.22353,10.80118 c-14.81179,6.05654 -23.752,14.22958 -26.57226,24.29213 c-2.82028,10.06225 0.56981,21.69107 10.07579,34.56381 c9.52931,12.90385 24.66375,26.36456 44.98271,40.00848 c42.114,28.27912 101.49774,53.99694 167.212,72.41546 c58.97607,16.52988 116.65954,25.38769 164.4994,25.388840000000002 q8.199,0 15.99118,-0.3485700000000002 c24.45028,-1.09585 44.376,-4.72966 59.22411,-10.80118 c14.81179,-6.05654 23.752,-14.22929 26.57226,-24.29184 c5.06382,-18.06821 -10.24,-41.54537 -43.0935,-66.10656 l3.533,-4.72505 c16.906109999999998,12.63911 29.42077,25.09759 37.19656,37.02861 c8.3358,12.79121 11.04258,24.70033 8.04485,35.39549 c-6.46273,23.05772 -38.85646,37.04791 -91.2128,39.39459 C567.4271036816406,422.02664642456057 562.0083636816406,422.1436064245606 556.4686336816407,422.1436064245606 z" fill="#f2f2f2" id="svg_5" class=""/><circle cx="418.9638977050781" cy="103.85604858398438" r="2.258049964904785" fill="#f2f2f2" id="svg_6" class=""/><circle cx="119.396240234375" cy="200.2135772705078" r="2.258049964904785" fill="#f2f2f2" id="svg_7" class=""/><circle cx="111.11672973632812" cy="352.2554473876953" r="2.258049964904785" fill="#f2f2f2" id="svg_8" class=""/><circle cx="571.7584533691406" cy="117.40432739257812" r="1.505370020866394" fill="#f2f2f2" id="svg_9" class=""/><circle cx="753.1549377441406" cy="329.6749725341797" r="1.505370020866394" fill="#f2f2f2" id="svg_10" class=""/><circle cx="670.3598937988281" cy="260.4281768798828" r="1.505370020866394" fill="#f2f2f2" id="svg_11" class=""/><circle cx="255.63180541992188" cy="151.27503967285156" r="1.505370020866394" fill="#f2f2f2" id="svg_12" class=""/><circle cx="665.0910949707031" cy="309.35255432128906" r="1.505370020866394" fill="#f2f2f2" id="svg_13" class=""/><circle cx="129.18112182617188" cy="460.6417694091797" r="1.505370020866394" fill="#f2f2f2" id="svg_14" class=""/><circle cx="218.75033569335938" cy="522.3617095947266" r="1.505370020866394" fill="#f2f2f2" id="svg_15" class=""/><polygon points="348.9642639160156,40.82601547241211 346.8872985839844,40.82601547241211 346.8872985839844,38.74901580810547 345.7732849121094,38.74901580810547 345.7732849121094,40.82601547241211 343.6952819824219,40.82601547241211 343.6952819824219,41.941017150878906 345.7732849121094,41.941017150878906 345.7732849121094,44.01801681518555 346.8872985839844,44.01801681518555 346.8872985839844,41.941017150878906 348.9642639160156,41.941017150878906 348.9642639160156,40.82601547241211 " fill="#f2f2f2" id="svg_16" class=""/><polygon points="573.2642517089844,552.6500396728516 571.1862487792969,552.6500396728516 571.1862487792969,550.5730133056641 570.0722961425781,550.5730133056641 570.0722961425781,552.6500396728516 567.9952697753906,552.6500396728516 567.9952697753906,553.7650299072266 570.0722961425781,553.7650299072266 570.0722961425781,555.8419952392578 571.1862487792969,555.8419952392578 571.1862487792969,553.7650299072266 573.2642517089844,553.7650299072266 573.2642517089844,552.6500396728516 " fill="#f2f2f2" id="svg_17" class=""/><polygon points="712.5102844238281,521.7899932861328 710.4332580566406,521.7899932861328 710.4332580566406,519.7130279541016 709.3182678222656,519.7130279541016 709.3182678222656,521.7899932861328 707.2412414550781,521.7899932861328 707.2412414550781,522.9050445556641 709.3182678222656,522.9050445556641 709.3182678222656,524.9820098876953 710.4332580566406,524.9820098876953 710.4332580566406,522.9050445556641 712.5102844238281,522.9050445556641 712.5102844238281,521.7899932861328 " fill="#f2f2f2" id="svg_18" class=""/><circle cx="416.7059020996094" cy="184.40724182128906" r="16.559019088745117" fill="#3f3d56" id="svg_19" class=""/><circle cx="289.5025329589844" cy="305.58912658691406" r="16.559019088745117" fill="#3f3d56" id="svg_20" class=""/><circle cx="472.4043884277344" cy="471.93199157714844" r="16.559019088745117" fill="#3f3d56" id="svg_21" class=""/><circle cx="416.7059020996094" cy="331.1803436279297" r="16.559019088745117" fill="#3f3d56" id="svg_22" class=""/><circle cx="297.7820129394531" cy="422.2549285888672" r="16.559019088745117" fill="#3f3d56" id="svg_23" class=""/><circle cx="505.5224304199219" cy="242.36380004882812" r="16.559019088745117" fill="#3f3d56" id="svg_24" class=""/><circle cx="560.4682312011719" cy="354.5135040283203" r="16.559019088745117" fill="#3f3d56" id="svg_25" class=""/><circle cx="416.7059020996094" cy="258.92283630371094" r="21.827789306640625" fill="#fff" id="svg_26" class=""/><path d="M416.7058736816406,227.31011642456053 a30.86,30.86 0 0 0 -30.86,30.86 c0,17.0435 30.86,73.01021 30.86,73.01021 s30.86,-55.96671 30.86,-73.01021 A30.86,30.86 0 0 0 416.7058736816406,227.31011642456053 zm0,45.91364 a14.301,14.301 0 1 1 14.301,-14.301 A14.301,14.301 0 0 1 416.7058736816406,273.22378642456056 z" fill="#ff6584" id="svg_27" class=""/><circle cx="297.7820129394531" cy="352.2554473876953" r="21.827789306640625" fill="#fff" id="svg_28" class=""/><path d="M297.7820236816407,320.64278642456054 a30.86,30.86 0 0 0 -30.86,30.86 c0,17.0435 30.86,73.01021 30.86,73.01021 s30.86,-55.96671 30.86,-73.01021 A30.86,30.86 0 0 0 297.7820236816407,320.64278642456054 zm0,45.91364 a14.301,14.301 0 1 1 14.301,-14.301 A14.301,14.301 0 0 1 297.7820236816407,366.5564264245605 z" fill="#ff6584" id="svg_29" class=""/><circle cx="560.4682312011719" cy="284.51402282714844" r="21.827789306640625" fill="#fff" id="svg_30" class=""/><path d="M560.4682736816407,252.90135642456056 a30.86,30.86 0 0 0 -30.86,30.86 c0,17.0435 30.86,73.01021 30.86,73.01021 s30.86,-55.96671 30.86,-73.01021 A30.86,30.86 0 0 0 560.4682736816407,252.90135642456056 zm0,45.91364 a14.301,14.301 0 1 1 14.301,-14.301 A14.301,14.301 0 0 1 560.4682736816407,298.81499642456055 z" fill="#ff6584" id="svg_31" class=""/><circle cx="416.7059020996094" cy="112.14971160888672" r="21.827789306640625" fill="#fff" id="svg_32" class=""/><path d="M416.7058736816406,80.53704642456054 a30.86,30.86 0 0 0 -30.86,30.86 c0,17.0435 30.86,73.01021 30.86,73.01021 s30.86,-55.96671 30.86,-73.01021 A30.86,30.86 0 0 0 416.7058736816406,80.53704642456054 zm0,45.91364 a14.301,14.301 0 1 1 14.301,-14.301 A14.301,14.301 0 0 1 416.7058736816406,126.45068642456056 z" fill="#ff6584" id="svg_33" class=""/><circle cx="472.4043884277344" cy="401.93251037597656" r="21.827789306640625" fill="#fff" id="svg_34" class=""/><path d="M472.40438368164064,370.31983642456055 a30.86,30.86 0 0 0 -30.86,30.86 c0,17.0435 30.86,73.01021 30.86,73.01021 s30.86,-55.96671 30.86,-73.01021 A30.86,30.86 0 0 0 472.40438368164064,370.31983642456055 zm0,45.91364 a14.301,14.301 0 1 1 14.301,-14.301 A14.301,14.301 0 0 1 472.40438368164064,416.23347642456054 z" fill="#ff6584" id="svg_35" class=""/><circle cx="289.5025329589844" cy="234.08428955078125" r="21.827789306640625" fill="#fff" id="svg_36" class=""/><path d="M289.5025136816406,202.47162642456055 a30.86,30.86 0 0 0 -30.86,30.86 c0,17.0435 30.86,73.0102 30.86,73.0102 s30.86,-55.9667 30.86,-73.0102 A30.86,30.86 0 0 0 289.5025136816406,202.47162642456055 zm0,45.91364 a14.301,14.301 0 1 1 14.301,-14.301 A14.301,14.301 0 0 1 289.5025136816406,248.38526642456054 z" fill="#ff6584" id="svg_37" class=""/><circle cx="505.5224304199219" cy="173.11700439453125" r="21.827789306640625" fill="#fff" id="svg_38" class=""/><path d="M505.5224136816406,141.50433642456053 a30.86,30.86 0 0 0 -30.86,30.86 c0,17.0435 30.86,73.01021 30.86,73.01021 s30.86,-55.96671 30.86,-73.01021 A30.86,30.86 0 0 0 505.5224136816406,141.50433642456053 zm0,45.91364 a14.301,14.301 0 1 1 14.301,-14.301 A14.301,14.301 0 0 1 505.5224136816406,187.41797642456055 z" fill="#ff6584" id="svg_39" class=""/></g></svg>